<svg xmlns="http://www.w3.org/2000/svg" xmlns:xlink="http://www.w3.org/1999/xlink" viewBox="0 0 2963.73 249.771">
  <defs>
    <style>
      .cls-1 {
        fill: #000;
      }

      .cls-2 {
        fill: url(#linear-gradient);
      }

      .cls-3 {
        fill: url(#linear-gradient-2);
      }

      .cls-4 {
        fill: url(#linear-gradient-3);
      }

      .cls-5 {
        fill: url(#linear-gradient-4);
      }

      .cls-6 {
        fill: url(#linear-gradient-5);
      }

      .cls-7 {
        fill: url(#linear-gradient-6);
      }

      .cls-8 {
        fill: url(#linear-gradient-7);
      }

      .cls-9 {
        fill: #0d185c;
      }

      .cls-10 {
        fill: #061e5c;
      }

      .cls-11 {
        fill: #040f42;
      }
    </style>
    <linearGradient id="linear-gradient" x1="-13.001" y1="20.188" x2="-9.233" y2="5.52" gradientUnits="objectBoundingBox">
      <stop offset="0.403" stop-color="#3c8ecd"/>
      <stop offset="0.994" stop-color="#82cef2"/>
    </linearGradient>
    <linearGradient id="linear-gradient-2" x1="-189.856" y1="22.803" x2="-186.088" y2="8.135" gradientUnits="objectBoundingBox">
      <stop offset="0.403" stop-color="#c18dbe"/>
      <stop offset="1" stop-color="#9db4dd"/>
    </linearGradient>
    <linearGradient id="linear-gradient-3" x1="-151.674" y1="17.959" x2="-147.906" y2="3.291" gradientUnits="objectBoundingBox">
      <stop offset="0.403" stop-color="#454494"/>
      <stop offset="1" stop-color="#76a1d6"/>
    </linearGradient>
    <linearGradient id="linear-gradient-4" x1="-13.053" y1="25.872" x2="-9.285" y2="11.205" gradientUnits="objectBoundingBox">
      <stop offset="0.403" stop-color="#56bdc1"/>
      <stop offset="0.994" stop-color="#82cef2"/>
    </linearGradient>
    <linearGradient id="linear-gradient-5" x1="10.602" y1="28.834" x2="8.198" y2="14.704" gradientUnits="objectBoundingBox">
      <stop offset="0.006" stop-color="#13287a"/>
      <stop offset="1" stop-color="#1a3d8e"/>
    </linearGradient>
    <linearGradient id="linear-gradient-6" x1="8.016" y1="7.512" x2="12.3" y2="22.065" gradientUnits="objectBoundingBox">
      <stop offset="0" stop-color="#466bb3"/>
      <stop offset="0.727" stop-color="#3c3079"/>
    </linearGradient>
    <linearGradient id="linear-gradient-7" x1="23.026" y1="26.018" x2="27.859" y2="12.759" gradientUnits="objectBoundingBox">
      <stop offset="0.192" stop-color="#1972a0"/>
      <stop offset="1" stop-color="#3b9fd9"/>
    </linearGradient>
  </defs>
  <g id="Group_1" data-name="Group 1" transform="translate(-80.983 -561)">
    <path id="path4" class="cls-1" d="M73.341,55.255c26.26,0,42.078,12.143,42.078,32.621,0,15.27-8.766,26.226-24.033,29.417,18.819,2.8,29.806,15.091,29.806,32.979,0,22.155-17.508,35.359-46.941,35.359H18.374V55.255ZM33.28,111.515H72.6c17.484,0,27.721-7.65,27.721-21.246,0-13.2-10.237-20.641-27.721-20.641H33.28Zm0,59.969H72.6c21.212,0,33.509-8.369,33.509-23.262,0-14.163-12.3-22.547-33.509-22.547H33.28Zm204.338-18.8-14.53,32.951h-15.84L265.737,55.255h15.449l58.3,130.376H323.282l-14.53-32.951Zm35.39-80.462-29.066,66.105h58.489ZM527.59,185.631l-78.2-104.625V185.631h-14.9V55.255H449.94l78.236,104.9V55.255h14.693V185.631Zm137.3-14.147H752.24l-.194,14.147H645.351V173.716l86.38-104.089H647.769V55.255H751.3V67.2Zm200.987-18.8-14.57,32.951H835.517L893.96,55.255h15.483l58.292,130.376h-16.18L936.982,152.68Zm35.359-80.462-29.059,66.105h58.508Zm161.5,113.413V55.255h14.893V185.631ZM1298.517,76.156l-19.195,22.692c-8.557-10.4-21.175-16.929-32.751-16.929-20.675,0-36.315,16.392-36.315,37.8,0,21.779,15.64,38.369,36.315,38.369,10.974,0,23.639-5.961,32.751-15.3l19.374,20.527c-13.953,14.311-34.625,23.833-53.818,23.833-39.266,0-68.532-28.877-68.532-67.049,0-37.638,29.982-65.948,69.652-65.948,19.377,0,39.51,8.578,52.519,22.01Zm178.27,81.736v27.74H1388.3V55.255h33.173V157.891Zm222.775-37.635c0,38.008-30.167,66.886-70.62,66.886-40.225,0-70.354-28.683-70.354-66.886,0-37.977,30.129-66.108,70.354-66.108C1669.4,54.145,1699.562,82.455,1699.562,120.257Zm-107.12.21c0,21.943,16.984,38.939,36.87,38.939,20.12,0,36.142-17,36.142-38.939,0-21.992-16.019-38.548-36.142-38.548C1609.211,81.919,1592.442,98.474,1592.442,120.466Zm316.457,10.4c0,34.465-22.917,56.275-59.429,56.275-36.66,0-60.117-21.81-60.117-56.275V55.255h33.111v75.612c0,17.712,11.375,28.538,27.234,28.538,15.627,0,26.223-10.826,26.223-28.538V55.255H1908.9Zm154.425-75.612c40.971,0,69.278,26.454,69.278,65.211,0,38.566-28.68,65.165-70.6,65.165h-54.764V55.255ZM2040.4,159.177h23.67c20.283,0,34.816-15.627,34.816-38.547,0-23.065-15.267-38.921-36.328-38.921H2040.4Z" transform="translate(912.111 564.855)"/>
    <path id="path13" class="cls-2" d="M383.521,8.756c147.837,0,144.131,212.816,0,212.816H14.76C227.919,221.571,234.509,8.756,383.521,8.756Z" transform="translate(160.665 589.199)"/>
    <path id="path20" class="cls-3" d="M96.6,12.577c-125.97,0-122.81,181.331,0,181.331H410.8c-181.623,0-187.235-181.331-314.2-181.331Z" transform="translate(77.683 616.862)"/>
    <path id="path27" class="cls-4" d="M138.1,4.272c-173.513,0-169.16,249.77,0,249.77H570.893c-250.175,0-257.908-249.77-432.791-249.77Z" transform="translate(123.257 556.728)"/>
    <path id="path34" class="cls-5" d="M313.042,15.832c107.336,0,104.65,154.5,0,154.5H45.337C200.09,170.334,204.866,15.832,313.042,15.832Z" transform="translate(382.059 640.436)"/>
    <path id="path41" class="cls-6" d="M440.3,155.182a260.058,260.058,0,0,1-58.427-27.177C333.208,97.639,298.48,54.928,264.452,16.03c-27.383,28.8-52.972,63.24-85.945,92.139-29.775,26.094-65.578,47.661-114.154,56.462a277.332,277.332,0,0,1-49.593,4.27H533.485c-35.574,0-66.239-5.053-93.182-13.718Z" transform="translate(160.666 641.87)"/>
    <path id="path48" class="cls-7" d="M333.385,191.9c-52.475-6.876-88.2-30.643-117.475-58.721-54.947-52.7-87.2-120.6-164.893-120.6a110.56,110.56,0,0,0-31.309,4.277c-27.289,64.856.849,152.588,82.049,172.785a150.1,150.1,0,0,0,36.339,4.27h227.12a244.07,244.07,0,0,1-31.83-2.011Z" transform="translate(123.263 616.862)"/>
    <path id="path55" class="cls-8" d="M266,17.247c-39.813,21.384-64.787,67.8-105.518,101.946-27.8,23.308-62.936,40.9-115.145,40.9H162.126c22.3,0,41.245-5.1,56.783-13.719C265.239,120.676,281.3,63.7,266,17.247Z" transform="translate(382.059 650.682)"/>
    <path id="path57" class="cls-9" d="M134.933,27.211C105.158,53.305,69.355,74.872,20.779,83.673a150.1,150.1,0,0,0,36.339,4.27H223.157a206.065,206.065,0,0,0,29.231-2.01C199.924,79.054,164.209,55.287,134.933,27.211Z" transform="translate(204.24 722.828)"/>
    <path id="path59" class="cls-10" d="M134.8,29.618C112.54,48.285,85.562,63.272,48.884,68.5H48.9a244.079,244.079,0,0,0,31.83,2.01h55.708c22.3,0,41.245-5.1,56.783-13.719A260.107,260.107,0,0,1,134.8,29.618Z" transform="translate(407.743 740.257)"/>
    <path id="path61" class="cls-11" d="M74.568,34.337a205.9,205.9,0,0,1-29.231,2.01h61.081a244.077,244.077,0,0,1-31.83-2.01Z" transform="translate(382.059 774.423)"/>
  </g>
</svg>
